<?xml version="1.0" encoding="utf-8"?>
<!-- Generator: Adobe Illustrator 27.2.0, SVG Export Plug-In . SVG Version: 6.00 Build 0)  -->
<svg version="1.1" id="_x32_" xmlns="http://www.w3.org/2000/svg" xmlns:xlink="http://www.w3.org/1999/xlink" x="0px" y="0px"
	 viewBox="0 0 800 800" style="enable-background:new 0 0 800 800;" xml:space="preserve">
<style type="text/css">
	.st0{fill:#00FF00;}
</style>
<g>
	<path class="st0" d="M740.3,0c0,0-29,44.2-218.7,109.6c-193.3,66.7-312.3,338.1-312.3,338.1C180.7,503.4,67.5,734.4,67.5,734.4
		c-31.2,59.6,26,94.9,59.5,33.3c64.3-118.3,105.8-226.4,203.5-229.4c142.5-4.5,240-131.4,209.4-125.6c-40.4,17.9-129.3,1.4-76.9-6.9
		C588.7,395.6,666.2,299.1,641,292.6c-44.6,17.5-86.2,0.9-94.4-4.1C768.7,260.9,740.3,0,740.3,0z"/>
</g>
</svg>
